<?xml version="1.0" standalone="no"?>
<!DOCTYPE svg PUBLIC "-//W3C//DTD SVG 20010904//EN"
 "http://www.w3.org/TR/2001/REC-SVG-20010904/DTD/svg10.dtd">
<svg version="1.0"
  xmlns="http://www.w3.org/2000/svg" width="360.000000pt" height="360.000000pt" viewBox="0 0 360.000000 360.000000" preserveAspectRatio="xMidYMid meet">

  <g transform="translate(0.000000,360.000000) scale(0.100000,-0.100000)" fill="#fff" stroke="none">
    <path d="M1797 2968 c-9 -5 -24 -23 -33 -41 -10 -18 -37 -50 -60 -73 -49 -45
-50 -52 -29 -142 21 -88 58 -157 124 -225 93 -98 189 -134 381 -144 63 -3 131
-1 150 4 l35 10 -38 16 c-41 18 -56 41 -40 66 18 28 64 20 83 -14 27 -49 42
-42 83 37 55 108 57 132 16 174 -38 39 -92 58 -279 98 -63 13 -141 34 -172 46
-68 25 -157 102 -185 159 -16 31 -23 37 -36 29z m628 -398 c0 -33 -2 -35 -35
-35 -29 0 -36 4 -38 23 -6 40 5 54 40 50 30 -3 33 -6 33 -38z"/>
    <path d="M2374 2579 c-10 -17 13 -36 27 -22 12 12 4 33 -11 33 -5 0 -12 -5
-16 -11z"/>
    <path d="M1850 2962 c0 -6 18 -33 40 -60 28 -36 57 -59 102 -80 96 -46 121
-49 59 -7 -30 20 -80 58 -110 83 -81 69 -91 76 -91 64z"/>
    <path d="M2290 2800 c-119 -7 -180 -23 -130 -34 151 -33 251 -60 281 -76 l37
-18 10 61 c5 34 8 65 5 70 -5 8 -28 7 -203 -3z"/>
    <path d="M1587 2754 c-28 -18 -37 -30 -32 -42 3 -9 94 -222 201 -473 l194
-455 88 -101 c96 -109 192 -202 316 -302 l79 -65 48 55 c58 65 83 113 75 144
-5 20 -10 23 -45 18 -55 -8 -63 13 -20 51 49 44 42 68 -19 64 -61 -4 -69 21
-18 54 52 33 44 53 -21 49 -78 -4 -85 34 -11 64 29 11 38 20 34 31 -3 9 -6 18
-6 20 0 3 -22 2 -48 -2 -37 -5 -51 -2 -61 10 -18 22 0 43 50 56 29 8 37 14 32
26 -5 13 -15 15 -46 11 -48 -7 -77 6 -77 33 0 15 11 22 45 31 35 9 45 16 45
32 0 17 -5 19 -41 14 -48 -6 -91 10 -87 32 2 9 23 22 48 30 55 17 52 15 44 35
-4 11 -18 16 -44 16 -51 0 -70 8 -70 31 0 12 9 21 28 25 15 3 32 7 37 9 29 9
-118 53 -262 79 -117 20 -184 54 -258 130 -72 73 -117 156 -136 250 -7 36 -15
66 -18 65 -3 0 -23 -11 -44 -25z"/>
    <path d="M1444 2641 c-71 -75 -94 -109 -94 -141 0 -36 74 -128 262 -330 90
-97 182 -197 206 -224 23 -27 42 -46 42 -43 0 17 -339 792 -348 795 -6 2 -36
-24 -68 -57z"/>
    <path d="M2497 2664 c-4 -4 3 -20 15 -36 19 -27 19 -34 8 -71 -7 -23 -23 -64
-37 -90 -13 -27 -23 -58 -21 -70 4 -26 90 185 90 222 1 31 -38 62 -55 45z"/>
    <path d="M1223 2414 c-26 -38 -30 -50 -23 -75 14 -49 90 -145 232 -295 182
-192 267 -287 386 -435 96 -120 291 -319 312 -319 5 0 25 17 44 37 l34 37
-111 106 c-66 63 -156 164 -226 255 -64 82 -190 228 -281 323 -197 207 -283
310 -307 369 -10 23 -20 43 -23 43 -3 0 -19 -21 -37 -46z"/>
    <path d="M2310 2321 l-65 -6 32 -13 c17 -8 39 -22 47 -31 12 -13 26 -16 58
-12 36 5 44 10 46 30 4 25 -13 42 -38 39 -8 -1 -44 -4 -80 -7z"/>
    <path d="M2391 2191 c-19 -12 -4 -31 25 -31 17 0 24 5 24 20 0 21 -24 27 -49
11z"/>
    <path d="M2414 2074 c3 -9 6 -17 6 -19 0 -2 9 -1 20 2 30 8 25 33 -6 33 -20 0
-25 -4 -20 -16z"/>
    <path d="M2446 1982 c-2 -4 -1 -14 3 -20 10 -16 41 -5 41 14 0 15 -35 20 -44
6z"/>
    <path d="M2489 1883 c-11 -3 -15 -11 -12 -24 4 -15 11 -18 27 -13 28 8 28 8
20 28 -6 16 -7 17 -35 9z"/>
    <path d="M2523 1773 c-7 -2 -13 -11 -13 -20 0 -21 44 -13 48 10 3 17 -10 21
-35 10z"/>
    <path d="M2558 1673 c-19 -5 -23 -20 -10 -40 13 -20 54 -4 50 20 -3 22 -13 27
-40 20z"/>
    <path d="M360 1658 c713 -198 1640 -470 1670 -489 15 -10 -444 -6 -740 6
l-125 5 295 -49 c418 -70 1104 -181 1115 -181 5 0 -31 23 -80 51 -185 106
-362 238 -515 385 l-65 62 -215 31 c-886 125 -1358 191 -1366 190 -5 0 7 -5
26 -11z"/>
    <path d="M2603 1560 c-19 -8 -23 -17 -23 -49 0 -22 -3 -47 -6 -56 -5 -11 11
-4 45 20 28 20 51 39 51 41 0 9 -33 54 -39 53 -3 0 -16 -4 -28 -9z"/>
    <path d="M2614 1442 c-33 -26 -82 -66 -110 -90 l-49 -43 34 -28 c52 -43 230
-149 297 -176 54 -22 60 -23 72 -8 6 9 12 29 12 44 0 15 -6 40 -12 56 -19 43
-170 293 -177 292 -3 0 -33 -21 -67 -47z"/>
    <path d="M2199 1317 l-43 -50 40 -35 c68 -59 287 -200 385 -246 134 -64 153
-66 213 -20 l49 37 -44 13 c-101 30 -294 145 -460 276 l-96 75 -44 -50z"/>
  </g>
</svg>
